<?xml version="1.0" encoding="UTF-8" standalone="no"?>
<!-- Created with Inkscape (http://www.inkscape.org/) -->

<svg
   width="212.34363mm"
   height="119.50674mm"
   viewBox="0 0 212.34363 119.50674"
   version="1.1"
   id="svg1"
   inkscape:version="1.4.2 (ebf0e94, 2025-05-08)"
   sodipodi:docname="logo.svg"
   inkscape:export-filename="logo.png"
   inkscape:export-xdpi="119.61743"
   inkscape:export-ydpi="119.61743"
   xmlns:inkscape="http://www.inkscape.org/namespaces/inkscape"
   xmlns:sodipodi="http://sodipodi.sourceforge.net/DTD/sodipodi-0.dtd"
   xmlns="http://www.w3.org/2000/svg"
   xmlns:svg="http://www.w3.org/2000/svg">
  <sodipodi:namedview
     id="namedview1"
     pagecolor="#ffffff"
     bordercolor="#666666"
     borderopacity="1.0"
     inkscape:showpageshadow="2"
     inkscape:pageopacity="0.0"
     inkscape:pagecheckerboard="0"
     inkscape:deskcolor="#d1d1d1"
     inkscape:document-units="mm"
     inkscape:zoom="0.61847245"
     inkscape:cx="540.04022"
     inkscape:cy="126.11718"
     inkscape:window-width="1920"
     inkscape:window-height="1016"
     inkscape:window-x="0"
     inkscape:window-y="27"
     inkscape:window-maximized="1"
     inkscape:current-layer="layer1" />
  <defs
     id="defs1">
    <filter
       inkscape:collect="always"
       style="color-interpolation-filters:sRGB"
       id="filter9"
       x="-0.017251519"
       y="-0.070538844"
       width="1.0341118"
       height="1.1408636">
      <feGaussianBlur
         inkscape:collect="always"
         stdDeviation="1.4395981"
         id="feGaussianBlur9" />
    </filter>
  </defs>
  <g
     inkscape:label="Layer 1"
     inkscape:groupmode="layer"
     id="layer1"
     transform="translate(-3.9853305,-41.13334)">
    <path
       id="path3"
       style="fill:#5f8dd3"
       d="m 202.53704,41.13471 c 7.57264,0.005 13.68051,6.04818 13.79037,13.59504 v 0.0263 l -0.002,22.79551 -0.005,69.03074 H 3.9851205 V 89.5309 65.33238 54.9356 c 0,-7.64305 6.1501805,-13.79689 13.7919305,-13.80226 h 0.01 92.370069 z"
       sodipodi:nodetypes="ccccccccssccc" />
    <path
       id="path4"
       style="fill:#162d50"
       d="m 56.948511,105.2358 c 1.17206,-0.077 2.35526,-0.99039 3.45922,-2.72076 0.31194,-0.48895 1.31754,-2.38038 2.23449,-4.20284 2.3901,-4.75039 3.64576,-6.5504 5.07928,-7.28173 0.68856,-0.35127 1.81674,-0.35112 2.70887,5.2e-4 1.69298,0.66731 4.25795,2.84716 8.07858,6.86624 4.38812,4.61606 5.79792,5.72486 7.2962,5.73816 1.18699,0.0105 2.14312,-0.69144 3.24631,-2.38281 0.31611,-0.48463 1.29814,-2.39917 2.1823,-4.25452 2.45331,-5.14809 3.60242,-7.05104 5.27564,-8.73693 1.2035,-1.21263 1.83229,-1.55094 2.88872,-1.55494 1.749939,-0.007 3.105999,1.19493 5.742279,5.08651 2.01875,2.98001 3.51017,4.00367 5.33404,3.66179 1.70541,-0.31967 3.1169,-1.47168 7.32927,-5.9831 6.15333,-6.59018 9.05269,-8.74725 12.03854,-8.95604 1.28361,-0.0897 2.25781,0.17601 3.92999,1.07125 2.52223,1.35031 3.24622,1.68683 4.06642,1.89188 1.72108,0.43029 3.34739,-0.14842 5.09168,-1.8123 1.3121,-1.25161 2.23864,-2.46513 3.89796,-5.10614 1.54752,-2.46309 1.95651,-3.00267 2.48563,-3.27629 0.82786,-0.4281 1.53167,-0.23489 3.76928,1.03508 1.58086,0.89724 2.38764,1.20152 3.40186,1.28312 1.65924,0.13354 3.08796,-0.49279 5.62808,-2.46703 1.87933,-1.46065 2.3649,-1.71941 3.23133,-1.72341 1.57708,-0.007 2.87784,1.44005 6.40788,7.12773 0.24447,0.39391 0.84781,1.26299 1.341,1.93167 1.63724,2.21984 3.01186,3.12074 4.76147,3.12074 0.83506,0 1.06679,-0.0546 1.7911,-0.4222 2.219,-1.12631 3.96074,-3.48981 7.40937,-10.0552 3.19718,-6.0867 4.37489,-8.00278 5.79913,-9.43457 1.70296,-1.71197 3.32733,-1.68521 4.93251,0.0806 1.87572,2.06345 2.57704,2.51086 4.07004,2.59726 1.50722,0.0873 2.85656,-0.39399 4.76818,-1.70016 1.94878,-1.33155 4.75565,-3.96197 8.03,-7.52564 l 1.6738,-1.82211 V 54.9356 c 0,-7.64639 -6.15535,-13.80226 -13.80174,-13.80226 H 110.15715 17.787081 c -7.64406,0 -13.8017505,6.15188 -13.8017505,13.79503 v 0.007 24.77151 l 0.85732,0.68575 c 1.15293,0.9222 1.851,1.30817 2.81223,1.55442 0.88491,0.2267 1.40043,0.18071 2.27738,-0.20412 0.8675905,-0.38072 1.5129505,-0.96717 2.4287905,-2.2071 2.33558,-3.16206 3.90223,-3.45883 6.64249,-1.25729 2.0791,1.67036 4.17387,4.48046 8.41086,11.282 3.32597,5.33911 4.02377,6.31333 5.0617,7.0652 1.11118,0.80493 2.12635,0.46011 5.95778,-2.02365 4.80037,-3.11188 6.08938,-3.57922 7.6662,-2.78019 1.41429,0.71668 2.72602,2.53827 5.27668,7.3272 1.63399,3.06788 2.1184,3.85902 2.90008,4.73822 0.85541,0.96214 1.76007,1.4081 2.67167,1.34823 z"
       sodipodi:nodetypes="cssssscssscssscccsssscscscscssccsccsscssccssssssssssscc"
       inkscape:export-filename="reyflow.png"
       inkscape:export-xdpi="119.61743"
       inkscape:export-ydpi="119.61743" />
    <path
       id="path5"
       style="fill:#162d50;fill-opacity:1"
       d="m 163.36578,93.38871 v 5.1e-4 c 0.9116,-0.0599 1.81627,0.3861 2.67168,1.34824 0.78168,0.8792 1.26609,1.67033 2.90008,4.73821 2.55066,4.78893 3.86239,6.61053 5.27668,7.32721 1.57682,0.79903 2.86583,0.33168 7.6662,-2.7802 3.83143,-2.48376 4.84659,-2.82858 5.95777,-2.02365 1.03793,0.75187 1.73574,1.7261 5.06171,7.06521 4.23699,6.80154 6.33176,9.61163 8.41086,11.28199 2.74026,2.20154 4.3069,1.90478 6.64248,-1.25728 0.91584,-1.23993 1.56121,-1.82638 2.4288,-2.2071 0.87695,-0.38483 1.39247,-0.43082 2.27738,-0.20412 0.96123,0.24625 1.65929,0.63224 2.81223,1.55442 l 0.85576,0.68471 v 27.92148 c 0,7.64638 -6.15587,13.80174 -13.80226,13.80174 H 17.785521 c -7.5684,0 -13.6763905,-6.03034 -13.8001905,-13.56817 v -3.75705 l 1.6738,-1.82211 c 3.27435,-3.56367 6.0812205,-6.19409 8.0300005,-7.52564 1.91162,-1.30617 3.26097,-1.78746 4.76819,-1.70016 1.493,0.0864 2.19431,0.53381 4.07003,2.59726 1.60518,1.76581 3.22956,1.79259 4.93252,0.0806 1.42424,-1.43179 2.60195,-3.34787 5.79913,-9.43457 3.44863,-6.56539 5.19036,-8.92889 7.40936,-10.0552 0.72431,-0.3676 0.95605,-0.4222 1.79111,-0.4222 1.74961,0 3.12423,0.9009 4.76147,3.12074 0.49319,0.66868 1.09653,1.53776 1.341,1.93167 3.53004,5.68768 4.8308,7.13473 6.40788,7.12773 0.86643,-0.004 1.35199,-0.26276 3.23132,-1.72341 2.54012,-1.97424 3.96884,-2.60057 5.62808,-2.46703 1.01422,0.0816 1.821,0.38588 3.40186,1.28312 2.23761,1.26997 2.94142,1.46318 3.76928,1.03508 0.52912,-0.27362 0.93812,-0.81319 2.48564,-3.27628 1.65932,-2.64101 2.58585,-3.85454 3.89795,-5.10615 1.74429,-1.66388 3.3706,-2.24258 5.09168,-1.81229 0.8202,0.20505 1.54419,0.54156 4.06642,1.89187 1.67218,0.89524 2.64638,1.16095 3.92999,1.07125 6.98902,-0.48872 12.741359,-10.61075 17.665069,-11.53367 4.79455,-0.89873 8.20366,5.36114 12.77907,5.34284 2.97936,-0.26873 6.96219,-4.89057 8.16436,-7.2385 0.88416,-1.85535 1.86618,-3.76989 2.18229,-4.25452 1.10319,-1.69137 2.05933,-2.3933 3.24632,-2.3828 1.49828,0.0133 2.90807,1.12209 7.29619,5.73815 1.64165,1.98195 8.07099,4.98932 10.78746,3.81338 1.43352,-0.73133 2.68918,-2.53133 5.07928,-7.28172 0.91695,-1.82246 1.84318,-3.77476 2.23448,-4.20285 1.53018,-1.67403 1.51786,-2.72077 3.45922,-2.72074 z"
       sodipodi:nodetypes="ccssssssssssccssscccscssscssccscsssssscscsccssssc" />
    <text
       xml:space="preserve"
       style="font-size:35.7328px;line-height:1.25;font-family:'Linux Libertine O';-inkscape-font-specification:'Linux Libertine O';text-align:end;letter-spacing:0px;word-spacing:0px;text-orientation:upright;text-anchor:end;fill:#ffb380;stroke-width:0.264582"
       x="203.48801"
       y="149.60654"
       id="text5"><tspan
         sodipodi:role="line"
         id="tspan5"
         style="font-style:normal;font-variant:normal;font-weight:bold;font-stretch:normal;font-family:'Fira Sans';-inkscape-font-specification:'Fira Sans';fill:#ffb380;stroke-width:0.264582"
         x="203.48801"
         y="149.60654">Reyflow</tspan></text>
    <g
       id="g8"
       style="stroke:#ffb380;stroke-width:1.5;stroke-dasharray:none;stroke-opacity:1"
       transform="translate(-339.57169,-331.82734)">
      <path
         style="fill:none;stroke:#ffb380;stroke-width:1.5;stroke-linecap:butt;stroke-linejoin:miter;stroke-dasharray:none;stroke-opacity:1"
         d="m 343.74674,422.41867 c 19.55501,11.30329 46.41811,17.91524 52.9162,17.40069 4.91075,-0.38885 7.60062,-6.31978 11.37856,-6.95434 3.77794,-0.63456 9.08458,5.24941 12.88227,5.05505 3.79769,-0.19436 7.86736,-1.38529 10.44706,-3.48347 2.5797,-2.09818 3.47341,-7.30541 7.24935,-8.41591 3.77594,-1.1105 5.11957,4.14328 10.5959,3.40934 5.47633,-0.73394 11.79461,-7.24345 18.31781,-9.38089 6.5232,-2.13744 11.51312,0.0624 16.27558,-2.1943 4.76246,-2.25669 7.87109,-6.00237 12.11048,-6.74925 4.23939,-0.74688 9.45511,5.3605 15.75557,6.67985 6.30046,1.31935 13.72049,1.37042 18.15041,-2.60407 9.44212,-8.47139 12.97236,-12.05065 26.02321,-12.48659"
         id="path6"
         sodipodi:nodetypes="czzzzzzzzzzsc" />
      <path
         style="fill:none;stroke:#ffb380;stroke-width:1.5;stroke-linecap:butt;stroke-linejoin:miter;stroke-dasharray:none;stroke-opacity:1"
         d="m 343.97917,444.81103 c 37.71971,-10.4964 51.08087,4.86773 75.72618,-3.37513 4.85011,-1.52641 15.03806,-4.3978 20.99788,-6.2216 5.95982,-1.8238 8.23028,-2.59356 14.77632,-4.6662 6.54604,-2.07264 16.91902,-6.235 24.49756,-7.777 7.57854,-1.542 13.45632,-1.85842 20.60906,-1.94426 7.15274,-0.0858 11.86072,2.79953 22.16443,3.31238 10.30371,0.51285 33.3315,3.52936 33.3315,3.52936"
         id="path7"
         sodipodi:nodetypes="czzzzzzc" />
      <path
         style="fill:none;stroke:#ffb380;stroke-width:1.5;stroke-linecap:butt;stroke-linejoin:miter;stroke-dasharray:none;stroke-opacity:1"
         d="m 343.58232,462.3019 c 18.53099,-3.52065 27.53403,-16.3725 36.35606,-17.2501 9.2244,-0.91764 15.97824,6.82784 24.83839,6.98729 3.50124,-0.29736 9.78799,-5.35055 13.762,-6.7548 3.97401,-1.40425 6.40282,0.67713 12.05437,-0.73759 5.65155,-1.41472 11.98759,-8.16714 18.08031,-8.52293 6.09272,-0.35579 7.3755,4.8382 13.46484,2.81821 6.08934,-2.01999 5.44534,-9.50482 11.06847,-11.10829 5.62313,-1.60347 9.44229,7.14108 15.68854,6.09548 6.24625,-1.0456 8.33669,-10.18906 14.41072,-10.27206 6.07403,-0.083 8.08473,9.20045 13.16124,10.22619 5.07651,1.02574 6.69439,-4.38862 12.234,-3.3046 5.53961,1.08402 12.41493,10.90522 18.15807,12.90145 5.74314,1.99623 8.97783,0.14389 8.97783,0.14389"
         id="path8"
         sodipodi:nodetypes="cszzzzzzzzzzzc" />
    </g>
    <g
       id="g9"
       style="stroke:#ffb380;stroke-width:1.5;stroke-dasharray:none;stroke-opacity:1;filter:url(#filter9)"
       transform="translate(-339.57169,-331.82734)">
      <path
         style="fill:none;stroke:#ffb380;stroke-width:1.5;stroke-linecap:butt;stroke-linejoin:miter;stroke-dasharray:none;stroke-opacity:1"
         d="m 343.74674,422.41867 c 19.55501,11.30329 46.41811,17.91524 52.9162,17.40069 4.91075,-0.38885 7.60062,-6.31978 11.37856,-6.95434 3.77794,-0.63456 9.08458,5.24941 12.88227,5.05505 3.79769,-0.19436 7.86736,-1.38529 10.44706,-3.48347 2.5797,-2.09818 3.47341,-7.30541 7.24935,-8.41591 3.77594,-1.1105 5.11957,4.14328 10.5959,3.40934 5.47633,-0.73394 11.79461,-7.24345 18.31781,-9.38089 6.5232,-2.13744 11.51312,0.0624 16.27558,-2.1943 4.76246,-2.25669 7.87109,-6.00237 12.11048,-6.74925 4.23939,-0.74688 9.45511,5.3605 15.75557,6.67985 6.30046,1.31935 13.72049,1.37042 18.15041,-2.60407 9.44212,-8.47139 12.97236,-12.05065 26.02321,-12.48659"
         id="path1"
         sodipodi:nodetypes="czzzzzzzzzzsc" />
      <path
         style="fill:none;stroke:#ffb380;stroke-width:1.5;stroke-linecap:butt;stroke-linejoin:miter;stroke-dasharray:none;stroke-opacity:1"
         d="m 343.97917,444.81103 c 37.71971,-10.4964 51.08087,4.86773 75.72618,-3.37513 4.85011,-1.52641 15.03806,-4.3978 20.99788,-6.2216 5.95982,-1.8238 8.23028,-2.59356 14.77632,-4.6662 6.54604,-2.07264 16.91902,-6.235 24.49756,-7.777 7.57854,-1.542 13.45632,-1.85842 20.60906,-1.94426 7.15274,-0.0858 11.86072,2.79953 22.16443,3.31238 10.30371,0.51285 33.3315,3.52936 33.3315,3.52936"
         id="path2"
         sodipodi:nodetypes="czzzzzzc" />
      <path
         style="fill:none;stroke:#ffb380;stroke-width:1.5;stroke-linecap:butt;stroke-linejoin:miter;stroke-dasharray:none;stroke-opacity:1"
         d="m 343.58232,462.3019 c 18.53099,-3.52065 27.53403,-16.3725 36.35606,-17.2501 9.2244,-0.91764 15.97824,6.82784 24.83839,6.98729 3.50124,-0.29736 9.78799,-5.35055 13.762,-6.7548 3.97401,-1.40425 6.40282,0.67713 12.05437,-0.73759 5.65155,-1.41472 11.98759,-8.16714 18.08031,-8.52293 6.09272,-0.35579 7.3755,4.8382 13.46484,2.81821 6.08934,-2.01999 5.44534,-9.50482 11.06847,-11.10829 5.62313,-1.60347 9.44229,7.14108 15.68854,6.09548 6.24625,-1.0456 8.33669,-10.18906 14.41072,-10.27206 6.07403,-0.083 8.08473,9.20045 13.16124,10.22619 5.07651,1.02574 6.69439,-4.38862 12.234,-3.3046 5.53961,1.08402 12.41493,10.90522 18.15807,12.90145 5.74314,1.99623 8.97783,0.14389 8.97783,0.14389"
         id="path9"
         sodipodi:nodetypes="cszzzzzzzzzzzc" />
    </g>
  </g>
</svg>
